<?xml version="1.0" encoding="UTF-8" standalone="no"?><!DOCTYPE svg PUBLIC "-//W3C//DTD SVG 1.1//EN" "http://www.w3.org/Graphics/SVG/1.1/DTD/svg11.dtd"><svg width="100%" height="100%" viewBox="0 0 3089 689" version="1.1" xmlns="http://www.w3.org/2000/svg" xmlns:xlink="http://www.w3.org/1999/xlink" xml:space="preserve" xmlns:serif="http://www.serif.com/" style="fill-rule:evenodd;clip-rule:evenodd;stroke-linejoin:round;stroke-miterlimit:2;"><g id="Artboard-Copy"><g id="Group-20"><path id="Fill-1" d="M379.435,56.743c-22.329,26.413 -38.937,55.925 -49.895,89.013c-0.688,-0.759 -1.217,-1.325 -1.73,-1.909c-18.945,-21.645 -42.241,-36.437 -70.433,-42.095c-50.208,-10.075 -92.971,4.083 -127.271,42.308c-16.641,18.546 -26.658,40.617 -30.191,65.312c-5.625,39.363 4.154,74.603 29.779,105.078c16.346,19.434 36.887,32.775 61.154,40.259c0.587,0.179 1.596,0.462 1.596,0.462c0,0 -0.025,0.996 -0.025,1.617c-0.038,32.479 -0.029,64.954 -0.034,97.429c0,0.5 0.013,1.004 0.005,1.5c-74.667,-10.508 -157.33,-67.842 -184.117,-165.379c-28.154,-102.524 17.271,-210.366 110.108,-261.741c89.734,-49.654 195.088,-31.05 261.054,28.146"/><path id="Fill-2" d="M569.771,0.072l0,99.171c-2.133,0.167 -4.229,0.329 -6.325,0.496c-10.113,0.813 -19.558,3.95 -28.463,8.621c-26.625,13.975 -47.995,33.329 -61.341,60.717c-6.371,13.07 -10.592,26.812 -11.838,41.333c-0.637,7.442 -0.833,14.925 -1.083,22.396c-0.896,26.975 -6.325,53.029 -16.408,78.029c-20.842,51.675 -55.071,91.896 -103.654,119.555c-21.463,12.216 -44.463,20.312 -68.817,24.533c-11.2,1.933 -22.471,3 -33.842,3.112c-0.841,0.005 -2.36,0 -2.36,0l0,-2.2c0.056,-31.804 0.04,-63.616 0.044,-95.425c0,-0.629 0.012,-1.325 0.041,-2.029c2.75,-0.183 5.446,-0.275 8.063,-0.466c22.183,-1.605 42.15,-9.267 60.083,-22.263c25.663,-18.6 42.621,-43.379 51.763,-73.605c3.758,-12.416 5.491,-25.15 5.5,-38.095c0.016,-30.009 5.716,-58.892 17.321,-86.542c16.841,-40.142 43.224,-72.708 78.633,-98.017c18.458,-13.191 38.045,-24.212 59.72,-31.262c13.409,-4.359 27.109,-7.242 41.2,-8.025c3.842,-0.217 7.7,-0.034 11.763,-0.034" style="fill:#e84b25;"/><path id="Fill-3" d="M456.6,688.206l-2.371,0c-31.071,0.004 -62.141,0.004 -93.208,0.004c-1.313,0 -2.646,-0.008 -2.646,-0.008c0,0 0.021,-1.263 0.021,-2.53c0,-66.654 0.012,-148.537 -0.029,-215.191l0,-2.392c0,0 1.012,-0.446 1.821,-0.9c39.187,-22.275 70.633,-52.717 94.995,-90.608c0.396,-0.617 0.809,-1.217 1.421,-2.134c0,99.659 -0.004,214.163 -0.004,313.759"/><path id="Fill-4" d="M685.458,264.331c8.425,0 16.142,1.041 22.925,3.091c6.871,2.08 13.059,4.58 18.405,7.425c5.366,2.859 9.983,5.759 13.729,8.621c3.396,2.6 6.212,4.692 8.446,6.275l0,129.75c-9.325,11.117 -20.825,19.267 -34.188,24.234c-13.721,5.112 -28.129,7.7 -42.833,7.7c-13.304,0 -25.296,-2.563 -35.638,-7.617c-10.362,-5.054 -19.316,-11.958 -26.612,-20.513c-7.304,-8.562 -12.984,-18.783 -16.884,-30.375c-3.916,-11.637 -5.9,-24.166 -5.9,-37.245c0,-13.33 2.63,-25.792 7.821,-37.038c5.188,-11.258 12.346,-20.987 21.271,-28.908c8.938,-7.938 19.5,-14.225 31.388,-18.684c11.9,-4.458 24.708,-6.716 38.07,-6.716Zm90.421,11.454c-3.691,-2.946 -8.304,-6.408 -14.104,-10.583c-5.75,-4.121 -12.4,-8.205 -19.762,-12.13c-7.417,-3.95 -15.98,-7.3 -25.455,-9.95c-9.491,-2.65 -19.958,-3.991 -31.1,-3.991c-17.516,0 -34.104,2.925 -49.304,8.696c-15.212,5.783 -28.658,13.987 -39.971,24.383c-11.325,10.396 -20.412,22.792 -27.012,36.846c-6.613,14.079 -9.963,29.437 -9.963,45.641c0,16.463 2.567,32.242 7.625,46.905c5.071,14.7 12.446,27.766 21.917,38.829c9.475,11.091 21.163,19.991 34.729,26.454c13.571,6.467 29.034,9.742 45.959,9.742c17.175,0 33.004,-2.68 47.045,-7.963c12.417,-4.675 23.321,-10.733 32.48,-18.042l0,126.767l27.7,0l0,-300.979l-0.784,-0.625Z"/><path id="Fill-5" d="M988.463,433.042c-2.5,1.796 -5.95,4.15 -10.275,7.017c-4.813,3.179 -10.792,6.254 -17.775,9.133c-7.009,2.892 -15.096,5.525 -24.05,7.829c-8.863,2.275 -18.559,3.429 -28.821,3.429c-14.784,0 -26.592,-2.858 -35.104,-8.508c-8.596,-5.692 -15.196,-12.512 -19.617,-20.271c-4.463,-7.812 -7.429,-16.05 -8.817,-24.471c-1.404,-8.55 -2.116,-15.491 -2.116,-20.633l0,-122.328l-26.588,0l0,126.52c0,11.054 1.758,22.237 5.229,33.25c3.492,11.079 8.996,21.275 16.359,30.291c7.391,9.055 16.979,16.459 28.487,21.996c11.525,5.55 25.392,8.363 41.213,8.363c10.92,0 21.825,-1.192 32.412,-3.546c10.546,-2.342 20.596,-5.35 29.879,-8.946c9.259,-3.583 17.867,-7.712 25.588,-12.267c7.675,-4.525 14.337,-9.05 19.804,-13.454l0.779,-0.629l0,-181.578l-26.587,0l0,168.803Z"/><path id="Fill-6" d="M1067.35,177.085c-5.958,0 -10.871,1.933 -14.608,5.754c-3.717,3.813 -5.604,8.379 -5.604,13.571c0,5.512 1.887,10.237 5.604,14.042c3.725,3.816 8.479,5.754 14.133,5.754c5.942,0 10.925,-1.925 14.813,-5.721c3.895,-3.808 5.875,-8.546 5.875,-14.075c0,-5.196 -1.888,-9.763 -5.605,-13.575c-3.733,-3.817 -8.645,-5.75 -14.608,-5.75"/><path id="Fill-7" d="M1053.82,478.597l26.587,0l0,-214.362l-26.587,0l0,214.362Z"/><path id="Fill-8" d="M1294.52,440.415c-7.729,6.342 -16.742,11.321 -26.788,14.792c-10.07,3.479 -20.675,5.246 -31.52,5.246c-12.709,0 -24.713,-2.379 -35.675,-7.063c-10.984,-4.679 -20.63,-11.187 -28.671,-19.35c-8.042,-8.15 -14.475,-17.816 -19.125,-28.72c-4.638,-10.875 -6.992,-22.671 -6.992,-35.067c0,-12.388 2.35,-24.108 6.988,-34.825c4.641,-10.733 11.07,-20.154 19.104,-28c8.029,-7.846 17.671,-14.05 28.65,-18.433c10.996,-4.384 23.012,-6.609 35.721,-6.609c11.17,0 22.029,1.692 32.27,5.025c10.2,3.325 19.284,8.217 26.992,14.546l1.846,1.513l12.258,-19.959l-1.508,-1.141c-9.979,-7.546 -21.079,-13.531 -32.996,-17.781c-11.937,-4.254 -25.171,-6.412 -39.337,-6.412c-16.413,0 -31.93,2.954 -46.113,8.779c-14.179,5.83 -26.596,13.814 -36.904,23.73c-10.333,9.929 -18.596,21.917 -24.558,35.625c-5.971,13.7 -8.996,28.488 -8.996,43.942c0,15.762 3.025,30.779 8.991,44.629c5.963,13.863 14.217,26.083 24.538,36.313c10.321,10.25 22.742,18.475 36.912,24.445c14.2,5.984 29.721,9.017 46.13,9.017c14.166,0 27.412,-2.237 39.358,-6.654c11.933,-4.408 23.05,-10.796 33.037,-18.983l1.509,-1.238l-13.396,-18.779l-1.725,1.412Z"/><path id="Fill-9" d="M1391.36,361.472l104.4,-97.233l-35.683,0l-92.987,85.725l0,-237.662l-26.588,0l0,366.295l26.588,0l0,-107.408l104.37,107.408l33.963,0l-114.063,-117.125Z"/><path id="Fill-10" d="M1673.39,397.019c-3.684,-6.762 -8.563,-12.667 -14.496,-17.554c-5.879,-4.825 -12.421,-9.025 -19.446,-12.475c-7,-3.438 -13.887,-6.583 -20.442,-9.333c-13.475,-6.15 -24.758,-12.542 -33.533,-19c-8.542,-6.288 -12.871,-15.096 -12.871,-26.196c0,-3.9 0.775,-7.846 2.309,-11.738c1.525,-3.879 4.008,-7.437 7.379,-10.571c3.362,-3.141 7.821,-5.733 13.237,-7.708c5.425,-1.967 12.129,-2.962 19.917,-2.962c9.704,0 18.667,1.237 26.646,3.679c7.912,2.429 14.108,5.796 18.421,10.004l0.916,0.896l10.679,-16.721l-0.587,-0.592c-5.504,-5.509 -13.671,-9.938 -24.288,-13.163c-10.545,-3.204 -22.52,-4.833 -35.6,-4.833c-9.625,0 -18.491,1.441 -26.354,4.279c-7.883,2.841 -14.658,6.771 -20.137,11.676c-5.488,4.9 -9.746,10.687 -12.663,17.2c-2.904,6.504 -4.379,13.345 -4.379,20.329c0,9.191 1.888,17.316 5.608,24.141c3.68,6.767 8.488,12.775 14.305,17.846c5.754,5.021 12.158,9.396 19.041,13.013c6.859,3.604 13.567,6.533 19.917,8.708c18.829,7.088 31.612,14.242 37.996,21.267c6.308,6.954 9.508,15.225 9.508,24.583c0,12.758 -3.825,22.9 -11.367,30.15c-7.554,7.263 -20.391,10.946 -38.158,10.946c-10.333,0 -20.092,-1.55 -29,-4.604c-8.921,-3.054 -18.854,-8.646 -29.525,-16.625l-0.921,-0.692l-10.596,17.596l0.684,0.575c9.266,7.717 20.016,13.792 31.958,18.05c11.958,4.267 24.95,6.425 38.617,6.425c12.104,0 22.854,-1.667 31.958,-4.954c9.125,-3.292 16.763,-7.838 22.704,-13.509c5.95,-5.687 10.509,-12.312 13.554,-19.695c3.05,-7.392 4.596,-15.292 4.596,-23.471c0,-9.754 -1.879,-18.154 -5.587,-24.967"/><path id="Fill-11" d="M1815.32,461.957c-12.85,0 -24.909,-2.4 -35.842,-7.138c-10.958,-4.742 -20.637,-11.329 -28.767,-19.583c-8.141,-8.254 -14.645,-18.021 -19.345,-29.038c-4.688,-11.004 -7.071,-23.1 -7.071,-35.946c0,-12.533 2.379,-24.391 7.071,-35.241c4.695,-10.85 11.195,-20.384 19.333,-28.329c8.129,-7.946 17.812,-14.305 28.771,-18.892c10.946,-4.583 23.012,-6.908 35.85,-6.908c12.521,0 24.508,2.325 35.621,6.908c11.1,4.583 20.858,10.942 29.008,18.892c8.133,7.95 14.633,17.483 19.325,28.329c4.696,10.862 7.079,22.716 7.079,35.241c0,12.834 -2.383,24.93 -7.079,35.946c-4.696,11.013 -11.2,20.779 -19.338,29.038c-8.154,8.262 -17.833,14.85 -28.775,19.583c-10.933,4.738 -22.991,7.138 -35.841,7.138m82.296,-170.521c-10.217,-9.825 -22.525,-17.738 -36.58,-23.518c-14.062,-5.771 -29.445,-8.7 -45.716,-8.7c-16.271,0 -31.654,2.929 -45.709,8.7c-14.062,5.78 -26.37,13.693 -36.579,23.518c-10.233,9.837 -18.421,21.712 -24.333,35.291c-5.908,13.575 -8.908,28.221 -8.908,43.525c0,15.613 2.995,30.492 8.908,44.221c5.908,13.734 14.092,25.842 24.321,35.984c10.221,10.15 22.529,18.3 36.583,24.225c14.067,5.929 29.45,8.933 45.717,8.933c16.262,0 31.65,-3.004 45.725,-8.933c14.046,-5.925 26.35,-14.075 36.583,-24.225c10.225,-10.146 18.404,-22.255 24.313,-35.984c5.916,-13.741 8.916,-28.621 8.916,-44.221c0,-15.291 -3,-29.933 -8.916,-43.525c-5.913,-13.575 -14.096,-25.45 -24.325,-35.291"/><path id="Fill-12" d="M1962.15,477.556l24.509,0l0,-364.217l-24.509,0l0,364.217Z"/><path id="Fill-13" d="M2199.71,433.575c-2.521,1.825 -6.134,4.296 -10.742,7.35c-4.875,3.225 -10.917,6.33 -17.954,9.23c-7.046,2.912 -15.184,5.558 -24.188,7.875c-8.946,2.3 -18.729,3.462 -29.079,3.462c-14.996,0 -26.996,-2.921 -35.679,-8.679c-8.729,-5.783 -15.438,-12.725 -19.946,-20.625c-4.521,-7.925 -7.533,-16.275 -8.937,-24.821c-1.417,-8.583 -2.134,-15.579 -2.134,-20.8l0,-121.286l-24.508,0l0,125.478c0,10.946 1.746,22.029 5.192,32.937c3.445,10.954 8.883,21.029 16.162,29.942c7.3,8.942 16.767,16.246 28.133,21.721c11.384,5.479 25.1,8.258 40.767,8.258c10.842,0 21.671,-1.183 32.183,-3.521c10.488,-2.333 20.488,-5.321 29.725,-8.9c9.217,-3.566 17.775,-7.671 25.434,-12.187c7.629,-4.504 14.25,-9 19.687,-13.375l0.388,-0.313l0,-180.04l-24.504,0l0,168.294Z"/><path id="Fill-14" d="M2345.17,452.362c-3.429,2.437 -7.367,4.512 -11.7,6.166c-4.304,1.659 -8.834,2.496 -13.459,2.496c-10.725,0 -18.541,-3.367 -23.237,-10.017c-4.783,-6.745 -7.204,-17.1 -7.204,-30.779l0,-133.754l59.154,0l0,-20.731l-59.154,0l0,-109.991l-24.509,0l0,264.501c0,23.117 4.509,39.634 13.405,49.079c8.912,9.48 21.925,14.284 38.683,14.284c9.325,0 17.425,-1.642 24.071,-4.875c6.683,-3.259 11.225,-6.138 13.875,-8.784l0.546,-0.545l-9.513,-17.734l-0.958,0.684Z"/><path id="Fill-15" d="M2412.08,178.127c-5.667,0 -10.329,1.829 -13.862,5.437c-3.521,3.608 -5.309,7.929 -5.309,12.846c0,5.237 1.788,9.712 5.309,13.312c3.525,3.613 8.029,5.442 13.387,5.442c5.663,0 10.404,-1.825 14.083,-5.425c3.688,-3.6 5.563,-8.087 5.563,-13.329c0,-4.917 -1.788,-9.238 -5.308,-12.846c-3.534,-3.608 -8.196,-5.437 -13.863,-5.437"/><path id="Fill-16" d="M2399.58,477.556l24.509,0l0,-212.279l-24.509,0l0,212.279Z"/><path id="Fill-17" d="M2570.92,461.957c-12.854,0 -24.913,-2.4 -35.842,-7.138c-10.954,-4.737 -20.633,-11.325 -28.771,-19.583c-8.133,-8.25 -14.641,-18.017 -19.341,-29.038c-4.688,-11.004 -7.071,-23.1 -7.071,-35.946c0,-12.533 2.379,-24.391 7.071,-35.241c4.696,-10.854 11.2,-20.388 19.329,-28.329c8.137,-7.95 17.821,-14.309 28.775,-18.892c10.942,-4.583 23.008,-6.908 35.85,-6.908c12.525,0 24.508,2.325 35.617,6.908c11.104,4.587 20.866,10.942 29.008,18.892c8.137,7.954 14.637,17.487 19.329,28.329c4.692,10.858 7.075,22.712 7.075,35.241c0,12.842 -2.383,24.938 -7.075,35.946c-4.696,11.004 -11.2,20.775 -19.342,29.038c-8.145,8.258 -17.825,14.846 -28.77,19.583c-10.938,4.738 -22.996,7.138 -35.842,7.138m82.292,-170.521c-10.221,-9.825 -22.53,-17.738 -36.58,-23.518c-14.062,-5.771 -29.445,-8.7 -45.712,-8.7c-16.275,0 -31.658,2.929 -45.713,8.7c-14.062,5.78 -26.37,13.693 -36.579,23.518c-10.229,9.833 -18.412,21.708 -24.329,35.291c-5.912,13.575 -8.912,28.217 -8.912,43.525c0,15.617 3,30.496 8.912,44.221c5.913,13.738 14.092,25.846 24.317,35.984c10.221,10.15 22.529,18.3 36.583,24.225c14.067,5.929 29.454,8.933 45.721,8.933c16.258,0 31.646,-3.004 45.721,-8.933c14.041,-5.921 26.35,-14.071 36.583,-24.225c10.221,-10.138 18.4,-22.246 24.317,-35.984c5.912,-13.746 8.912,-28.625 8.912,-44.221c0,-15.291 -3,-29.933 -8.912,-43.525c-5.921,-13.583 -14.104,-25.458 -24.329,-35.291"/><path id="Fill-18" d="M2892.01,288.224c-7.855,-8.604 -17.838,-15.667 -29.68,-20.989c-11.858,-5.317 -25.8,-8.017 -41.45,-8.017c-10.208,0 -20.404,1.188 -30.295,3.525c-9.85,2.329 -19.371,5.325 -28.292,8.902c-8.908,3.575 -17.246,7.596 -24.788,11.95c-7.55,4.367 -14.066,8.792 -19.37,13.146l-0.384,0.316l0,180.5l24.509,0l0,-168.762c2.441,-1.771 5.883,-4.104 10.495,-7.113c4.709,-3.062 10.517,-6.091 17.255,-9.004c6.77,-2.921 14.429,-5.571 22.762,-7.875c8.288,-2.296 17.583,-3.458 27.629,-3.458c14.371,0 26.309,2.775 35.484,8.242c9.2,5.491 16.475,12.129 21.616,19.729c5.15,7.637 8.709,15.671 10.579,23.883c1.884,8.267 2.834,15.404 2.834,21.208l0,123.15l24.504,0l0,-127.345c0,-10.946 -1.946,-21.959 -5.788,-32.738c-3.837,-10.787 -9.766,-20.629 -17.62,-29.25"/><path id="Fill-19" d="M3082.99,397.019c-3.688,-6.767 -8.563,-12.671 -14.496,-17.554c-5.875,-4.825 -12.417,-9.025 -19.442,-12.475c-7,-3.438 -13.891,-6.583 -20.441,-9.333c-13.484,-6.155 -24.767,-12.546 -33.538,-19c-8.537,-6.288 -12.867,-15.1 -12.867,-26.196c0,-3.9 0.775,-7.846 2.309,-11.738c1.525,-3.879 4.008,-7.433 7.375,-10.571c3.371,-3.145 7.829,-5.737 13.237,-7.708c5.429,-1.967 12.134,-2.962 19.921,-2.962c9.704,0 18.667,1.237 26.646,3.679c7.908,2.429 14.104,5.796 18.421,10.008l0.916,0.892l10.68,-16.721l-0.588,-0.592c-5.504,-5.509 -13.671,-9.938 -24.287,-13.163c-10.546,-3.204 -22.525,-4.833 -35.605,-4.833c-9.62,0 -18.487,1.441 -26.35,4.279c-7.883,2.841 -14.658,6.771 -20.137,11.676c-5.488,4.9 -9.746,10.687 -12.663,17.2c-2.908,6.504 -4.383,13.345 -4.383,20.329c0,9.187 1.888,17.312 5.613,24.141c3.683,6.775 8.491,12.78 14.304,17.846c5.758,5.029 12.166,9.404 19.041,13.013c6.859,3.604 13.567,6.533 19.917,8.708c18.829,7.088 31.613,14.242 37.996,21.267c6.308,6.954 9.508,15.225 9.508,24.583c0,12.758 -3.825,22.9 -11.366,30.15c-7.555,7.263 -20.392,10.946 -38.159,10.946c-10.333,0 -20.091,-1.55 -29,-4.604c-8.921,-3.05 -18.854,-8.646 -29.529,-16.625l-0.917,-0.688l-10.6,17.592l0.688,0.575c9.262,7.717 20.012,13.792 31.958,18.05c11.959,4.267 24.95,6.425 38.617,6.425c12.1,0 22.85,-1.667 31.954,-4.954c9.129,-3.292 16.767,-7.838 22.704,-13.509c5.95,-5.683 10.513,-12.312 13.559,-19.695c3.05,-7.392 4.595,-15.292 4.595,-23.471c0,-9.75 -1.879,-18.15 -5.591,-24.967"/></g></g></svg>