<?xml version="1.0" encoding="UTF-8"?>
<svg width="338px" height="49px" viewBox="0 0 338 49" version="1.1" xmlns="http://www.w3.org/2000/svg" xmlns:xlink="http://www.w3.org/1999/xlink">
    <!-- Generator: Sketch 62 (91390) - https://sketch.com -->
    <title>Artboard Copy</title>
    <desc>Created with Sketch.</desc>
    <g id="Artboard-Copy" stroke="none" stroke-width="1" fill="none" fill-rule="evenodd">
        <g id="Group-2-Copy-5" transform="translate(0.000000, 1.000000)">
            <g id="Group-2">
                <g id="Group">
                    <path d="M14.8426471,8.54272859 C15.0854231,8.2198522 15.4299368,7.84316872 15.8761986,7.41266686 C16.3224604,6.98216499 16.7089996,6.76691729 17.0358277,6.76691729 L19.2010528,6.76691729 C19.5278808,6.76691729 19.8086056,6.98216499 20.0432356,7.41266686 C20.2778656,7.84316872 20.4372042,8.2198522 20.5212563,8.54272859 L22.1604492,20.4890955 L29.7412051,6.76691729 L36.2368804,6.76691729 L26.2009614,24.1617961 C25.6492745,25.0766126 24.8952701,25.7896206 23.9389257,26.3008416 C22.9825813,26.8120625 22.0822697,27.0676692 21.2379639,27.0676692 L19.767245,27.0676692 C19.0591175,27.0676692 18.3696683,26.8255155 17.6988767,26.3412009 C17.0280852,25.8568863 16.5802358,25.1304253 16.3553152,24.1617961 L15.5882047,16.9778323 L11.3303588,24.1617961 C10.6292666,25.1304253 9.82429383,25.8568863 8.91541643,26.3412009 C8.00653903,26.8255155 7.19804872,27.0676692 6.48992125,27.0676692 L5.01920232,27.0676692 C4.14766081,27.0676692 3.36619491,26.8120625 2.67478115,26.3008416 C1.9833674,25.7896206 1.58668186,25.0766126 1.48471263,24.1617961 L0,6.76691729 L6.49567529,6.76691729 L7.33069994,20.4890955 L14.8426471,8.54272859 Z M47.5589854,15.8345865 C47.5922513,15.6992474 47.5580999,15.5639105 47.4565302,15.4285714 C47.3549605,15.2932324 47.1918151,15.2255639 46.9670892,15.2255639 C46.7198906,15.2255639 46.4393565,15.3383447 46.1254785,15.5639098 C45.8116005,15.7894748 45.5258176,16.0150365 45.2681211,16.2406015 L40.9750109,20.2669173 L46.4695333,20.2669173 L47.5589854,15.8345865 Z M52.8621291,14.0075188 L49.6270384,27.1691729 L44.7729819,27.1691729 L45.4632454,24.3609023 L36.9686465,24.3609023 L34.053607,27.1691729 L28.3568323,27.1691729 L44.0386585,11.3684211 C44.6664145,10.917291 45.457528,10.6015047 46.4120226,10.4210526 C47.3665173,10.2406006 48.2932026,10.1503759 49.1921065,10.1503759 C49.888757,10.1503759 50.5027336,10.2124054 51.0340548,10.3364662 C51.565376,10.4605269 51.9972454,10.6691715 52.3296761,10.962406 C52.6621067,11.2556406 52.8796943,11.6503759 52.9824454,12.1466165 C53.0851965,12.6428596 53.0450914,13.2631542 52.8621291,14.0075188 Z M56.9155934,16.5789474 L71.7474329,16.5789474 L72.2048364,14.7180451 L57.372997,14.7180451 L58.4957148,10.1503759 L75.4849127,10.1503759 C75.7995291,10.1503759 76.100354,10.2293225 76.3873964,10.387218 C76.6744389,10.5451136 76.9152941,10.7537581 77.1099694,11.0131579 C77.3046446,11.2725577 77.440438,11.5657878 77.5173537,11.8928571 C77.5942693,12.2199264 77.5911448,12.5526299 77.5079801,12.8909774 L76.2521994,18 C76.1690347,18.3383476 76.0086044,18.671051 75.7709037,18.9981203 C75.533203,19.3251896 75.2532596,19.6184198 74.9310651,19.8778195 C74.6088706,20.1372193 74.2654471,20.3458639 73.9007843,20.5037594 C73.5361215,20.6616549 73.196487,20.7406015 72.8818706,20.7406015 L71.4998128,20.7406015 L77.7959752,33.9360902 L72.3351616,33.9360902 L65.701912,20.7406015 L60.7467293,20.7406015 L59.1666079,27.1691729 L54.3125513,27.1691729 L56.9155934,16.5789474 Z M97.197521,16.5789474 L97.6549245,14.7180451 L86.5647537,14.7180451 L84.6270258,22.6015038 L100.571253,22.6015038 L99.4485354,27.1691729 L81.3469495,27.1691729 C81.0323332,27.1691729 80.7315083,27.0902264 80.4444658,26.9323308 C80.1574234,26.7744353 79.9165681,26.5657908 79.7218929,26.306391 C79.5272176,26.0469912 79.3914242,25.753761 79.3145086,25.4266917 C79.237593,25.0996224 79.2407175,24.766919 79.3238822,24.4285714 L82.1597843,12.8909774 C82.242949,12.5526299 82.4033793,12.2199264 82.64108,11.8928571 C82.8787807,11.5657878 83.1587241,11.2725577 83.4809186,11.0131579 C83.803113,10.7537581 84.1465365,10.5451136 84.5111994,10.387218 C84.8758622,10.2293225 85.2154967,10.1503759 85.5301131,10.1503759 L100.935001,10.1503759 C101.249617,10.1503759 101.550442,10.2293225 101.837485,10.387218 C102.124527,10.5451136 102.365382,10.7537581 102.560057,11.0131579 C102.754733,11.2725577 102.890526,11.5657878 102.967442,11.8928571 C103.044357,12.2199264 103.041233,12.5526299 102.958068,12.8909774 L101.702287,18 C101.619123,18.3383476 101.458692,18.671051 101.220992,18.9981203 C100.983291,19.3251896 100.703348,19.6184198 100.381153,19.8778195 C100.058959,20.1372193 99.7155352,20.3458639 99.3508724,20.5037594 C98.9862096,20.6616549 98.6465751,20.7406015 98.3319587,20.7406015 L86.9384093,20.7406015 L87.96133,16.5789474 L97.197521,16.5789474 Z M113.171268,10.1503759 L111.591147,16.5789474 L122.479065,16.5789474 L124.059187,10.1503759 L128.913243,10.1503759 L124.73008,27.1691729 L119.876023,27.1691729 L121.456145,20.7406015 L110.568226,20.7406015 L108.988105,27.1691729 L104.134048,27.1691729 L108.317212,10.1503759 L113.171268,10.1503759 Z M151.902594,10.1503759 C152.217211,10.1503759 152.518036,10.2293225 152.805078,10.387218 C153.092121,10.5451136 153.332976,10.7537581 153.527651,11.0131579 C153.722326,11.2725577 153.85812,11.5657878 153.935035,11.8928571 C154.011951,12.2199264 154.008827,12.5526299 153.925662,12.8909774 L151.08976,24.4285714 C151.006595,24.766919 150.846165,25.0996224 150.608464,25.4266917 C150.370763,25.753761 150.09082,26.0469912 149.768625,26.306391 C149.446431,26.5657908 149.103007,26.7744353 148.738345,26.9323308 C148.373682,27.0902264 148.034047,27.1691729 147.719431,27.1691729 L132.112291,27.1691729 C131.797674,27.1691729 131.49685,27.0902264 131.209807,26.9323308 C130.922765,26.7744353 130.681909,26.5657908 130.487234,26.306391 C130.292559,26.0469912 130.156766,25.753761 130.07985,25.4266917 C130.002934,25.0996224 130.006059,24.766919 130.089223,24.4285714 L132.925126,12.8909774 C133.00829,12.5526299 133.168721,12.2199264 133.406421,11.8928571 C133.644122,11.5657878 133.924065,11.2725577 134.24626,11.0131579 C134.568454,10.7537581 134.911878,10.5451136 135.276541,10.387218 C135.641204,10.2293225 135.980838,10.1503759 136.295454,10.1503759 L151.902594,10.1503759 Z M148.622518,14.7180451 L137.330095,14.7180451 L135.392367,22.6015038 L146.68479,22.6015038 L148.622518,14.7180451 Z M161.078416,22.6015038 L172.303422,22.6015038 L175.363868,10.1503759 L180.217924,10.1503759 L176.034761,27.1691729 L157.79834,27.1691729 C157.483724,27.1691729 157.182899,27.0902264 156.895856,26.9323308 C156.608814,26.7744353 156.367959,26.5657908 156.173283,26.306391 C155.978608,26.0469912 155.842815,25.753761 155.765899,25.4266917 C155.688983,25.0996224 155.692108,24.766919 155.775273,24.4285714 L159.284805,10.1503759 L164.138862,10.1503759 L161.078416,22.6015038 Z M199.963767,20.7406015 L186.918491,20.7406015 C186.603874,20.7406015 186.303049,20.6616549 186.016007,20.5037594 C185.728964,20.3458639 185.488109,20.1372193 185.293434,19.8778195 C185.098759,19.6184198 184.962965,19.3251896 184.88605,18.9981203 C184.809134,18.671051 184.812258,18.3383476 184.895423,18 L186.151204,12.8909774 C186.234369,12.5526299 186.394799,12.2199264 186.6325,11.8928571 C186.8702,11.5657878 187.150144,11.2725577 187.472338,11.0131579 C187.794533,10.7537581 188.137956,10.5451136 188.502619,10.387218 C188.867282,10.2293225 189.206916,10.1503759 189.521533,10.1503759 L207.420866,10.1503759 L206.298148,14.7180451 L190.556173,14.7180451 L190.09877,16.5789474 L203.144047,16.5789474 C203.458663,16.5789474 203.759488,16.6578939 204.04653,16.8157895 C204.333573,16.973685 204.574428,17.1823295 204.769103,17.4417293 C204.963779,17.7011291 205.099572,17.9943593 205.176488,18.3214286 C205.253403,18.6484979 205.250279,18.9812013 205.167114,19.3195489 L203.911333,24.4285714 C203.828169,24.766919 203.667738,25.0996224 203.430038,25.4266917 C203.192337,25.753761 202.912393,26.0469912 202.590199,26.306391 C202.268005,26.5657908 201.924581,26.7744353 201.559918,26.9323308 C201.195255,27.0902264 200.855621,27.1691729 200.541005,27.1691729 L180.720274,27.1691729 L181.842992,22.6015038 L199.506364,22.6015038 L199.963767,20.7406015 Z M226.470485,16.5789474 L226.927889,14.7180451 L215.837718,14.7180451 L213.89999,22.6015038 L229.844217,22.6015038 L228.721499,27.1691729 L210.619914,27.1691729 C210.305297,27.1691729 210.004472,27.0902264 209.71743,26.9323308 C209.430387,26.7744353 209.189532,26.5657908 208.994857,26.306391 C208.800182,26.0469912 208.664388,25.753761 208.587473,25.4266917 C208.510557,25.0996224 208.513682,24.766919 208.596846,24.4285714 L211.432748,12.8909774 C211.515913,12.5526299 211.676343,12.2199264 211.914044,11.8928571 C212.151745,11.5657878 212.431688,11.2725577 212.753883,11.0131579 C213.076077,10.7537581 213.419501,10.5451136 213.784163,10.387218 C214.148826,10.2293225 214.488461,10.1503759 214.803077,10.1503759 L230.207965,10.1503759 C230.522581,10.1503759 230.823406,10.2293225 231.110449,10.387218 C231.397491,10.5451136 231.638346,10.7537581 231.833022,11.0131579 C232.027697,11.2725577 232.16349,11.5657878 232.240406,11.8928571 C232.317321,12.2199264 232.314197,12.5526299 232.231032,12.8909774 L230.975252,18 C230.892087,18.3383476 230.731657,18.671051 230.493956,18.9981203 C230.256255,19.3251896 229.976312,19.6184198 229.654117,19.8778195 C229.331923,20.1372193 228.988499,20.3458639 228.623836,20.5037594 C228.259174,20.6616549 227.919539,20.7406015 227.604923,20.7406015 L216.211373,20.7406015 L217.234294,16.5789474 L226.470485,16.5789474 Z" id="WareHouse" fill="#938EDC"></path>
                    <polygon id="X" fill="#E02227" points="269.661652 4.22932331 260.639285 12.5423801 255.130709 4.22932331 245.009935 4.22932331 254.275509 18.4802779 226.691182 43.9849624 236.698874 43.9849624 258.101191 24.3616242 263.553226 32.674681 273.674 32.674681 264.452823 18.4802779 279.782425 4.22932331"></polygon>
                    <path d="M269.669808,1.8189894e-12 L261.580336,7.28778341 L257.171219,0.85085169 L238.842788,0.85085169 L250.134923,18.3373324 L218.109902,47.3684211 L238.842788,47.3462923 L257.171219,30.2089522 L261.580336,37.0712521 L281.339942,37.0712521 L268.82709,19.2387867 L289.266306,1.8189894e-12 L269.669808,1.8189894e-12 Z" id="X-Copy-2" stroke="#FC7578" stroke-width="1.26315789" opacity="0.497502" stroke-dasharray="13.47368390936601,1.684210488670751"></path>
                </g>
                <path d="M334.806271,12 C335.910841,12 336.806271,12.8954305 336.806271,14 C336.806271,14.2261124 336.767928,14.4505877 336.692872,14.6638796 L332.47017,26.6638796 C332.188469,27.4644123 331.43222,28 330.583569,28 L284.823999,28 C283.719429,28 282.823999,27.1045695 282.823999,26 C282.823999,25.7738876 282.862342,25.5494123 282.937398,25.3361204 L287.1601,13.3361204 C287.441801,12.5355877 288.19805,12 289.046701,12 L334.806271,12 Z M293.851429,15 L290.971429,15 L288.071429,23.44 C288.004762,23.64 287.984762,23.8366667 288.011429,24.03 C288.038095,24.2233333 288.101429,24.3966667 288.201429,24.55 C288.301429,24.7033333 288.431429,24.8266667 288.591429,24.92 C288.711429,24.99 288.838929,25.03375 288.973929,25.05125 L289.111429,25.06 L298.791429,25.06 L299.711429,22.36 L291.311429,22.36 L293.851429,15 Z M306.431429,15 L303.531429,15 L300.071429,25.06 L302.971429,25.06 L306.431429,15 Z M319.671429,15 L307.711429,15 L306.791429,17.7 L311.331429,17.7 L308.791429,25.06 L311.671429,25.06 L314.211429,17.7 L318.751429,17.7 L319.671429,15 Z M332.231429,15 L322.551429,15 C322.364762,15 322.158095,15.0466667 321.931429,15.14 C321.704762,15.2333333 321.488095,15.3566667 321.281429,15.51 C321.074762,15.6633333 320.891429,15.8366667 320.731429,16.03 C320.571429,16.2233333 320.458095,16.42 320.391429,16.62 L318.051429,23.44 C317.984762,23.64 317.964762,23.8366667 317.991429,24.03 C318.018095,24.2233333 318.081429,24.3966667 318.181429,24.55 C318.281429,24.7033333 318.411429,24.8266667 318.571429,24.92 C318.731429,25.0133333 318.904762,25.06 319.091429,25.06 L328.771429,25.06 L329.691429,22.36 L321.291429,22.36 L321.671429,21.26 L330.051429,21.26 L330.911429,18.8 L322.531429,18.8 L322.911429,17.7 L331.311429,17.7 L332.231429,15 Z" id="Combined-Shape" fill="#938EDC"></path>
            </g>
        </g>
    </g>
</svg>