<?xml version="1.0" encoding="UTF-8"?>
<svg width="346px" height="58px" viewBox="0 0 346 58" version="1.1" xmlns="http://www.w3.org/2000/svg" xmlns:xlink="http://www.w3.org/1999/xlink">
    <!-- Generator: Sketch 52.6 (67491) - http://www.bohemiancoding.com/sketch -->
    <title>Artboard Copy 7</title>
    <desc>Created with Sketch.</desc>
    <g id="Artboard-Copy-7" stroke="none" stroke-width="1" fill="none" fill-rule="evenodd">
        <g id="Group" transform="translate(0.000000, 1.000000)">
            <path d="M17.6128248,10.0994036 C17.9009116,9.71769193 18.3097241,9.27236835 18.8392746,8.76341948 C19.3688251,8.25447062 19.8275065,8 20.2153326,8 L22.7846674,8 C23.1724935,8 23.5056118,8.25447062 23.7840322,8.76341948 C24.0624527,9.27236835 24.2515297,9.71769193 24.351269,10.0994036 L26.2963949,24.222664 L35.2919955,8 L43,8 L31.0910135,28.5646123 C30.4363618,29.6461287 29.5416328,30.4890626 28.4067998,31.0934394 C27.2719668,31.6978161 26.2036243,32 25.2017403,32 L23.4565317,32 C22.6162419,32 21.7981164,31.7137206 21.0021307,31.1411531 C20.206145,30.5685856 19.6747107,29.7097473 19.4078117,28.5646123 L18.4975306,20.0715706 L13.4450158,28.5646123 C12.6130742,29.7097473 11.6578643,30.5685856 10.5793573,31.1411531 C9.50085036,31.7137206 8.54146636,32 7.70117655,32 L5.95596798,32 C4.92176514,32 3.99444928,31.6978161 3.17399258,31.0934394 C2.35353588,30.4890626 1.88281439,29.6461287 1.76181399,28.5646123 L0,8 L7.70800451,8 L8.69887513,24.222664 L17.6128248,10.0994036 Z M56.4352215,18.72 C56.474696,18.5599992 56.4341707,18.4000008 56.3136444,18.24 C56.1931181,18.0799992 55.9995239,18 55.7328559,18 C55.4395211,18 55.1066292,18.133332 54.7341701,18.4 C54.3617111,18.666668 54.0225906,18.933332 53.7167986,19.2 L48.622438,23.96 L55.142438,23.96 L56.4352215,18.72 Z M62.7281246,16.56 L58.8892484,32.12 L53.1292484,32.12 L53.9483402,28.8 L43.8683402,28.8 L40.4092484,32.12 L33.6492484,32.12 L52.2578736,13.44 C53.0027917,12.906664 53.9415557,12.5333344 55.0741937,12.32 C56.2068318,12.1066656 57.3064704,12 58.3731424,12 C59.1998132,12 59.9283801,12.0733326 60.5588652,12.22 C61.1893502,12.3666674 61.7018222,12.6133316 62.0962965,12.96 C62.4907708,13.3066684 62.7489682,13.7733304 62.8708963,14.36 C62.9928245,14.9466696 62.9452344,15.6799956 62.7281246,16.56 Z M67.5381128,19.6 L85.1381128,19.6 L85.6808845,17.4 L68.0808845,17.4 L69.4131424,12 L89.5731424,12 C89.9464776,12 90.3034473,12.0933324 90.6440623,12.28 C90.9846773,12.4666676 91.2704849,12.7133318 91.5014937,13.02 C91.7325024,13.3266682 91.8936398,13.6733314 91.9849107,14.06 C92.0761815,14.4466686 92.0724739,14.839998 91.9737877,15.24 L90.4836326,21.28 C90.3849464,21.680002 90.1945739,22.0733314 89.9125096,22.46 C89.6304453,22.8466686 89.2982543,23.1933318 88.9159266,23.5 C88.533599,23.8066682 88.1260801,24.0533324 87.693358,24.24 C87.2606358,24.4266676 86.8576131,24.52 86.4842779,24.52 L84.8442779,24.52 L92.3155331,40.12 L85.8355331,40.12 L77.9642779,24.52 L72.0842779,24.52 L70.2092484,32.12 L64.4492484,32.12 L67.5381128,19.6 Z M115.338113,19.6 L115.880885,17.4 L102.720885,17.4 L100.421506,26.72 L119.341506,26.72 L118.009248,32.12 L96.5292484,32.12 C96.1559132,32.12 95.7989434,32.0266676 95.4583284,31.84 C95.1177134,31.6533324 94.8319058,31.4066682 94.6008971,31.1 C94.3698884,30.7933318 94.208751,30.4466686 94.1174801,30.06 C94.0262092,29.6733314 94.0299168,29.280002 94.1286031,28.88 L97.4937877,15.24 C97.5924739,14.839998 97.7828463,14.4466686 98.0649107,14.06 C98.346975,13.6733314 98.679166,13.3266682 99.0614937,13.02 C99.4438213,12.7133318 99.8513401,12.4666676 100.284062,12.28 C100.716785,12.0933324 101.119807,12 101.493142,12 L119.773142,12 C120.146478,12 120.503447,12.0933324 120.844062,12.28 C121.184677,12.4666676 121.470485,12.7133318 121.701494,13.02 C121.932502,13.3266682 122.09364,13.6733314 122.184911,14.06 C122.276182,14.4466686 122.272474,14.839998 122.173788,15.24 L120.683633,21.28 C120.584946,21.680002 120.394574,22.0733314 120.11251,22.46 C119.830445,22.8466686 119.498254,23.1933318 119.115927,23.5 C118.733599,23.8066682 118.32608,24.0533324 117.893358,24.24 C117.460636,24.4266676 117.057613,24.52 116.684278,24.52 L103.164278,24.52 L104.378113,19.6 L115.338113,19.6 Z M134.293142,12 L132.418113,19.6 L145.338113,19.6 L147.213142,12 L152.973142,12 L148.009248,32.12 L142.249248,32.12 L144.124278,24.52 L131.204278,24.52 L129.329248,32.12 L123.569248,32.12 L128.533142,12 L134.293142,12 Z M180.253142,12 C180.626478,12 180.983447,12.0933324 181.324062,12.28 C181.664677,12.4666676 181.950485,12.7133318 182.181494,13.02 C182.412502,13.3266682 182.57364,13.6733314 182.664911,14.06 C182.756182,14.4466686 182.752474,14.839998 182.653788,15.24 L179.288603,28.88 C179.189917,29.280002 178.999544,29.6733314 178.71748,30.06 C178.435416,30.4466686 178.103225,30.7933318 177.720897,31.1 C177.338569,31.4066682 176.931051,31.6533324 176.498328,31.84 C176.065606,32.0266676 175.662584,32.12 175.289248,32.12 L156.769248,32.12 C156.395913,32.12 156.038943,32.0266676 155.698328,31.84 C155.357713,31.6533324 155.071906,31.4066682 154.840897,31.1 C154.609888,30.7933318 154.448751,30.4466686 154.35748,30.06 C154.266209,29.6733314 154.269917,29.280002 154.368603,28.88 L157.733788,15.24 C157.832474,14.839998 158.022846,14.4466686 158.304911,14.06 C158.586975,13.6733314 158.919166,13.3266682 159.301494,13.02 C159.683821,12.7133318 160.09134,12.4666676 160.524062,12.28 C160.956785,12.0933324 161.359807,12 161.733142,12 L180.253142,12 Z M176.360885,17.4 L162.960885,17.4 L160.661506,26.72 L174.061506,26.72 L176.360885,17.4 Z M191.141506,26.72 L204.461506,26.72 L208.093142,12 L213.853142,12 L208.889248,32.12 L187.249248,32.12 C186.875913,32.12 186.518943,32.0266676 186.178328,31.84 C185.837713,31.6533324 185.551906,31.4066682 185.320897,31.1 C185.089888,30.7933318 184.928751,30.4466686 184.83748,30.06 C184.746209,29.6733314 184.749917,29.280002 184.848603,28.88 L189.013142,12 L194.773142,12 L191.141506,26.72 Z M237.284278,24.52 L221.804278,24.52 C221.430943,24.52 221.073973,24.4266676 220.733358,24.24 C220.392743,24.0533324 220.106935,23.8066682 219.875927,23.5 C219.644918,23.1933318 219.48378,22.8466686 219.39251,22.46 C219.301239,22.0733314 219.304946,21.680002 219.403633,21.28 L220.893788,15.24 C220.992474,14.839998 221.182846,14.4466686 221.464911,14.06 C221.746975,13.6733314 222.079166,13.3266682 222.461494,13.02 C222.843821,12.7133318 223.25134,12.4666676 223.684062,12.28 C224.116785,12.0933324 224.519807,12 224.893142,12 L246.133142,12 L244.800885,17.4 L226.120885,17.4 L225.578113,19.6 L241.058113,19.6 C241.431448,19.6 241.788418,19.6933324 242.129033,19.88 C242.469648,20.0666676 242.755455,20.3133318 242.986464,20.62 C243.217473,20.9266682 243.37861,21.2733314 243.469881,21.66 C243.561152,22.0466686 243.557444,22.439998 243.458758,22.84 L241.968603,28.88 C241.869917,29.280002 241.679544,29.6733314 241.39748,30.06 C241.115416,30.4466686 240.783225,30.7933318 240.400897,31.1 C240.018569,31.4066682 239.611051,31.6533324 239.178328,31.84 C238.745606,32.0266676 238.342584,32.12 237.969248,32.12 L214.449248,32.12 L215.781506,26.72 L236.741506,26.72 L237.284278,24.52 Z M268.738113,19.6 L269.280885,17.4 L256.120885,17.4 L253.821506,26.72 L272.741506,26.72 L271.409248,32.12 L249.929248,32.12 C249.555913,32.12 249.198943,32.0266676 248.858328,31.84 C248.517713,31.6533324 248.231906,31.4066682 248.000897,31.1 C247.769888,30.7933318 247.608751,30.4466686 247.51748,30.06 C247.426209,29.6733314 247.429917,29.280002 247.528603,28.88 L250.893788,15.24 C250.992474,14.839998 251.182846,14.4466686 251.464911,14.06 C251.746975,13.6733314 252.079166,13.3266682 252.461494,13.02 C252.843821,12.7133318 253.25134,12.4666676 253.684062,12.28 C254.116785,12.0933324 254.519807,12 254.893142,12 L273.173142,12 C273.546478,12 273.903447,12.0933324 274.244062,12.28 C274.584677,12.4666676 274.870485,12.7133318 275.101494,13.02 C275.332502,13.3266682 275.49364,13.6733314 275.584911,14.06 C275.676182,14.4466686 275.672474,14.839998 275.573788,15.24 L274.083633,21.28 C273.984946,21.680002 273.794574,22.0733314 273.51251,22.46 C273.230445,22.8466686 272.898254,23.1933318 272.515927,23.5 C272.133599,23.8066682 271.72608,24.0533324 271.293358,24.24 C270.860636,24.4266676 270.457613,24.52 270.084278,24.52 L256.564278,24.52 L257.778113,19.6 L268.738113,19.6 Z" id="WareHouse" fill="#938EDC"></path>
            <polygon id="X" fill="#E02227" points="319.990322 5 309.284053 14.8278805 302.747377 5 290.737699 5 301.732565 21.8477952 269 52 280.875492 52 306.272259 28.8008535 312.741842 38.628734 324.75152 38.628734 313.809336 21.8477952 332 5"></polygon>
            <path d="M320,1.82209803e-12 L310.400739,8.61577949 L305.16872,1.00589578 L283.419538,1.00589578 L296.819195,21.6788019 L258.817141,56 L283.419538,55.9738389 L305.16872,35.7136946 L310.400739,43.826458 L333.848205,43.826458 L319,22.7445211 L343.253917,1.8189894e-12 L320,1.82209803e-12 Z" id="X-Copy-2" stroke="#FC7578" stroke-width="1.5" opacity="0.395507812" stroke-dasharray="16,2"></path>
        </g>
    </g>
</svg>